# xmcd
#
# Track frame offsets:
#	150
#	15796
#	32882
#	46194
#	61287
#	79125
#	96620
#	112643
#	127460
#	144092
#	157025
#	171462
#
# Disc length: 2438 seconds
#
# Revision: 1
# Processed by: cddbd v1.5.2PL0 Copyright (c) Steve Scherf et al.
# Submitted via: audiograbber 1.83.01
#
DISCID=9b09840c
DTITLE=Adam Harvey - Family Life
DYEAR=2014
DGENRE=Country
TTITLE0=Family Life
TTITLE1=Do The Best You Can
TTITLE2=She Don't Know She's Beautiful
TTITLE3=Kids
TTITLE4=Count On Me
TTITLE5=My Little Boy
TTITLE6=One Full Bottle Of Rum (feat. McAlister Kemp)
TTITLE7=Mere Male
TTITLE8=Sweet Sweet Love
TTITLE9=Daddy What If (feat. Leylah Harvey)
TTITLE10=My Home And Family
TTITLE11=You Are On My Mind
EXTD=
EXTT0=
EXTT1=
EXTT2=
EXTT3=
EXTT4=
EXTT5=
EXTT6=
EXTT7=
EXTT8=
EXTT9=
EXTT10=
EXTT11=
PLAYORDER=
